<svg xmlns="http://www.w3.org/2000/svg" viewBox="0 0 20 21.24"><defs><style>.cls-1{fill:#9b59b6}</style></defs><title>General Setting</title><g id="Layer_2" data-name="Layer 2"><g id="Layer_1-2" data-name="Layer 1"><path d="M19.59,13.58l-1.87-1.44a.27.27,0,0,1-.13-.3,6.53,6.53,0,0,0,0-2.42.28.28,0,0,1,.14-.33l1.87-1.44a.84.84,0,0,0,.24-1.2l-1.3-2.26a.86.86,0,0,0-1.18-.4l-2.2.91a.3.3,0,0,1-.36-.05,7.06,7.06,0,0,0-2-1.18.32.32,0,0,1-.24-.3c-.1-.78-.21-1.56-.3-2.34A.85.85,0,0,0,11.35,0Q10,0,8.64,0a.85.85,0,0,0-.88.83c-.1.78-.21,1.56-.31,2.34a.3.3,0,0,1-.22.29,7,7,0,0,0-2,1.17.32.32,0,0,1-.38.06L2.66,3.8a.86.86,0,0,0-1.21.42L.2,6.36A.89.89,0,0,0,.47,7.72L2.29,9.11a.25.25,0,0,1,.12.29,6.45,6.45,0,0,0,0,2.4.34.34,0,0,1-.17.38c-.6.45-1.2.91-1.79,1.38a.87.87,0,0,0-.26,1.3L1.45,17a.87.87,0,0,0,1.2.41l2.18-.9a.32.32,0,0,1,.38.05,7,7,0,0,0,2,1.17.34.34,0,0,1,.25.31c.1.77.2,1.54.3,2.31a.86.86,0,0,0,.92.84h2.66a.85.85,0,0,0,.9-.84c.1-.78.21-1.56.31-2.34a.3.3,0,0,1,.22-.28,7,7,0,0,0,2-1.18.32.32,0,0,1,.38-.05l2.2.91a2.18,2.18,0,0,0,.31.09.88.88,0,0,0,.84-.46l1.3-2.26A.85.85,0,0,0,19.59,13.58Zm-6.16-2.83a3.44,3.44,0,0,1-6.88-.13,3.44,3.44,0,1,1,6.88.13Z" class="cls-1"/></g></g></svg>